<mxfile host="Electron" agent="Mozilla/5.0 (Macintosh; Intel Mac OS X 10_15_7) AppleWebKit/537.36 (KHTML, like Gecko) draw.io/27.0.9 Chrome/134.0.6998.205 Electron/35.4.0 Safari/537.36" version="27.0.9">
  <diagram name="ADaPT ETL System Architecture Overview" id="7pOPjzTfK8qKfW7MXXrZ">
    <mxGraphModel dx="1763" dy="1303" grid="1" gridSize="10" guides="1" tooltips="1" connect="1" arrows="1" fold="1" page="1" pageScale="1" pageWidth="827" pageHeight="1169" math="0" shadow="0">
      <root>
        <mxCell id="0" />
        <mxCell id="1" parent="0" />
        <mxCell id="VY3dcJ5x0DCgXb4jfOs8-168" value="" style="rounded=1;whiteSpace=wrap;html=1;arcSize=1;" vertex="1" parent="1">
          <mxGeometry x="10" y="91.48" width="1620" height="948.52" as="geometry" />
        </mxCell>
        <mxCell id="VY3dcJ5x0DCgXb4jfOs8-24" value="" style="rounded=1;whiteSpace=wrap;html=1;fillColor=#F7F9FD;strokeColor=#A2BADE;gradientColor=none;arcSize=4;shadow=1;" vertex="1" parent="1">
          <mxGeometry x="610" y="174" width="392" height="260" as="geometry" />
        </mxCell>
        <mxCell id="VY3dcJ5x0DCgXb4jfOs8-89" value="" style="rounded=1;whiteSpace=wrap;html=1;fillColor=light-dark(#FDFBF6,#36210A);strokeColor=light-dark(#DAB782,#EDEDED);arcSize=4;gradientColor=none;shadow=1;" vertex="1" parent="1">
          <mxGeometry x="877.5" y="630" width="250" height="360" as="geometry" />
        </mxCell>
        <mxCell id="VY3dcJ5x0DCgXb4jfOs8-45" value="" style="rounded=1;whiteSpace=wrap;html=1;fillColor=#F7FDF9;strokeColor=#C2E1CC;gradientColor=none;arcSize=4;shadow=1;" vertex="1" parent="1">
          <mxGeometry x="1130" y="175" width="370" height="260" as="geometry" />
        </mxCell>
        <mxCell id="VY3dcJ5x0DCgXb4jfOs8-147" style="edgeStyle=orthogonalEdgeStyle;rounded=1;orthogonalLoop=1;jettySize=auto;html=1;exitX=1;exitY=0.5;exitDx=0;exitDy=0;curved=0;" edge="1" parent="1" source="VY3dcJ5x0DCgXb4jfOs8-70">
          <mxGeometry relative="1" as="geometry">
            <mxPoint x="1410" y="270" as="targetPoint" />
            <Array as="points">
              <mxPoint x="1270" y="270" />
            </Array>
          </mxGeometry>
        </mxCell>
        <mxCell id="VY3dcJ5x0DCgXb4jfOs8-155" value="&amp;nbsp;typing schema&amp;nbsp;" style="edgeLabel;html=1;align=center;verticalAlign=middle;resizable=0;points=[];labelBackgroundColor=light-dark(#f7fdf9, #ededed);fontSize=13;" vertex="1" connectable="0" parent="VY3dcJ5x0DCgXb4jfOs8-147">
          <mxGeometry x="-0.3612" y="1" relative="1" as="geometry">
            <mxPoint x="10" as="offset" />
          </mxGeometry>
        </mxCell>
        <mxCell id="VY3dcJ5x0DCgXb4jfOs8-10" value="" style="rounded=1;whiteSpace=wrap;html=1;fillColor=#FEFEF6;strokeColor=#F5F6B9;gradientColor=none;arcSize=4;shadow=1;" vertex="1" parent="1">
          <mxGeometry x="60" y="220" width="392" height="190" as="geometry" />
        </mxCell>
        <mxCell id="VY3dcJ5x0DCgXb4jfOs8-16" style="edgeStyle=orthogonalEdgeStyle;rounded=0;orthogonalLoop=1;jettySize=auto;html=1;targetPerimeterSpacing=5;sourcePerimeterSpacing=5;endArrow=classic;endFill=1;" edge="1" parent="1" source="VY3dcJ5x0DCgXb4jfOs8-9" target="VY3dcJ5x0DCgXb4jfOs8-8">
          <mxGeometry relative="1" as="geometry" />
        </mxCell>
        <mxCell id="VY3dcJ5x0DCgXb4jfOs8-17" value="&amp;nbsp;configures&amp;nbsp;" style="edgeLabel;html=1;align=center;verticalAlign=middle;resizable=0;points=[];labelBackgroundColor=light-dark(#fefef6, #ededed);fontSize=13;" vertex="1" connectable="0" parent="VY3dcJ5x0DCgXb4jfOs8-16">
          <mxGeometry x="-0.2172" y="-4" relative="1" as="geometry">
            <mxPoint x="7" y="-4" as="offset" />
          </mxGeometry>
        </mxCell>
        <mxCell id="VY3dcJ5x0DCgXb4jfOs8-9" value="" style="outlineConnect=0;fontColor=#232F3E;gradientColor=none;fillColor=#000000;strokeColor=default;verticalLabelPosition=bottom;verticalAlign=top;align=center;fontSize=12;fontStyle=0;pointerEvents=1;shape=mxgraph.aws4.gear;strokeWidth=0;shadow=0;perimeterSpacing=10;treeFolding=0;treeMoving=0;comic=0;noLabel=0;fixDash=0;container=0;dropTarget=0;editable=1;movable=1;resizable=1;rotatable=1;deletable=1;locked=0;connectable=1;resizeWidth=0;resizeHeight=0;fixedWidth=0;aspect=fixed;rotation=0;html=1;strokeOpacity=100;fillOpacity=100;metaEdit=0;backgroundOutline=0;" vertex="1" parent="1">
          <mxGeometry x="120" y="270" width="68" height="68" as="geometry" />
        </mxCell>
        <mxCell id="VY3dcJ5x0DCgXb4jfOs8-13" value="" style="group;strokeWidth=0;strokeColor=none;perimeterSpacing=10;aspect=fixed;" vertex="1" connectable="0" parent="1">
          <mxGeometry x="330" y="270" width="68" height="68" as="geometry" />
        </mxCell>
        <mxCell id="VY3dcJ5x0DCgXb4jfOs8-8" value="" style="html=1;verticalLabelPosition=bottom;labelBackgroundColor=#ffffff;verticalAlign=top;shadow=0;dashed=0;strokeWidth=1;shape=mxgraph.ios7.misc.circle;strokeColor=#222222;fillColor=none;" vertex="1" parent="VY3dcJ5x0DCgXb4jfOs8-13">
          <mxGeometry width="68" height="68" as="geometry" />
        </mxCell>
        <mxCell id="VY3dcJ5x0DCgXb4jfOs8-6" value="" style="html=1;verticalLabelPosition=bottom;align=center;labelBackgroundColor=#ffffff;verticalAlign=top;strokeWidth=1;strokeColor=default;shadow=0;dashed=0;shape=mxgraph.ios7.icons.play;gradientColor=none;fillColor=none;" vertex="1" parent="VY3dcJ5x0DCgXb4jfOs8-13">
          <mxGeometry x="25.500000000000007" y="22" width="21.000000000000007" height="24.000000000000007" as="geometry" />
        </mxCell>
        <mxCell id="VY3dcJ5x0DCgXb4jfOs8-20" value="ConfigReader" style="text;html=1;align=center;verticalAlign=middle;whiteSpace=wrap;rounded=0;fontSize=14;" vertex="1" parent="1">
          <mxGeometry x="129" y="348" width="60" height="30" as="geometry" />
        </mxCell>
        <mxCell id="VY3dcJ5x0DCgXb4jfOs8-21" value="Pipeline Runner" style="text;html=1;align=center;verticalAlign=middle;whiteSpace=wrap;rounded=0;fontSize=14;" vertex="1" parent="1">
          <mxGeometry x="334" y="348" width="60" height="30" as="geometry" />
        </mxCell>
        <mxCell id="VY3dcJ5x0DCgXb4jfOs8-22" value="&amp;nbsp; &amp;nbsp; &amp;nbsp;PIPELINE MODULE" style="text;html=1;align=center;verticalAlign=middle;whiteSpace=wrap;rounded=1;fillColor=default;strokeColor=light-dark(#F5F6B9,#EDEDED);strokeWidth=2;glass=0;shadow=1;" vertex="1" parent="1">
          <mxGeometry x="90" y="230" width="150" height="30" as="geometry" />
        </mxCell>
        <mxCell id="VY3dcJ5x0DCgXb4jfOs8-33" value="&amp;nbsp; &amp;nbsp; CONNECTOR MODULE" style="text;html=1;align=center;verticalAlign=middle;whiteSpace=wrap;rounded=1;fillColor=default;strokeColor=#E3EBF7;shadow=1;" vertex="1" parent="1">
          <mxGeometry x="630" y="181" width="180" height="30" as="geometry" />
        </mxCell>
        <mxCell id="VY3dcJ5x0DCgXb4jfOs8-48" value="&amp;nbsp; &amp;nbsp; SERIALIZER MODULE" style="text;html=1;align=center;verticalAlign=middle;whiteSpace=wrap;rounded=1;fillColor=default;strokeColor=#DEF0E3;shadow=1;" vertex="1" parent="1">
          <mxGeometry x="1153" y="181" width="180" height="30" as="geometry" />
        </mxCell>
        <mxCell id="VY3dcJ5x0DCgXb4jfOs8-92" value="&amp;nbsp; &amp;nbsp; &amp;nbsp;EXTERNAL SYSTEMS" style="text;html=1;align=center;verticalAlign=middle;whiteSpace=wrap;rounded=1;fillColor=default;strokeColor=#DAB782;shadow=1;" vertex="1" parent="1">
          <mxGeometry x="887.5" y="644" width="159" height="30" as="geometry" />
        </mxCell>
        <mxCell id="VY3dcJ5x0DCgXb4jfOs8-109" value="" style="rounded=1;whiteSpace=wrap;html=1;fillColor=#FDFBF6;strokeColor=light-dark(#DAB782,#EDEDED);gradientColor=none;arcSize=4;shadow=1;" vertex="1" parent="1">
          <mxGeometry x="220" y="520" width="220" height="360" as="geometry" />
        </mxCell>
        <mxCell id="VY3dcJ5x0DCgXb4jfOs8-110" value="&amp;nbsp;UTILS MODULE" style="text;html=1;align=center;verticalAlign=middle;whiteSpace=wrap;rounded=1;fillColor=default;strokeColor=#DAB782;shadow=1;" vertex="1" parent="1">
          <mxGeometry x="230" y="534" width="150" height="30" as="geometry" />
        </mxCell>
        <mxCell id="VY3dcJ5x0DCgXb4jfOs8-166" style="edgeStyle=orthogonalEdgeStyle;rounded=1;orthogonalLoop=1;jettySize=auto;html=1;curved=0;" edge="1" parent="1" source="VY3dcJ5x0DCgXb4jfOs8-111" target="VY3dcJ5x0DCgXb4jfOs8-9">
          <mxGeometry relative="1" as="geometry">
            <Array as="points">
              <mxPoint x="80" y="779" />
              <mxPoint x="80" y="304" />
            </Array>
          </mxGeometry>
        </mxCell>
        <mxCell id="VY3dcJ5x0DCgXb4jfOs8-167" value="provides configs" style="edgeLabel;html=1;align=center;verticalAlign=middle;resizable=0;points=[];fontSize=13;" vertex="1" connectable="0" parent="VY3dcJ5x0DCgXb4jfOs8-166">
          <mxGeometry x="0.215" y="-1" relative="1" as="geometry">
            <mxPoint as="offset" />
          </mxGeometry>
        </mxCell>
        <mxCell id="VY3dcJ5x0DCgXb4jfOs8-111" value="" style="outlineConnect=0;fontColor=#232F3E;gradientColor=none;fillColor=#000000;strokeColor=none;dashed=0;verticalLabelPosition=bottom;verticalAlign=top;align=center;html=1;fontSize=12;fontStyle=0;pointerEvents=1;shape=mxgraph.aws4.documents2;strokeWidth=20;perimeterSpacing=10;fillStyle=solid;shadow=0;aspect=fixed;" vertex="1" parent="1">
          <mxGeometry x="320" y="749" width="52" height="60" as="geometry" />
        </mxCell>
        <mxCell id="VY3dcJ5x0DCgXb4jfOs8-113" value="" style="sketch=0;aspect=fixed;pointerEvents=1;shadow=0;dashed=0;html=1;strokeColor=default;labelPosition=center;verticalLabelPosition=bottom;verticalAlign=top;align=center;fillColor=#000000;shape=mxgraph.mscae.enterprise.document;strokeWidth=0;perimeterSpacing=10;" vertex="1" parent="1">
          <mxGeometry x="326" y="600" width="40" height="50" as="geometry" />
        </mxCell>
        <mxCell id="VY3dcJ5x0DCgXb4jfOs8-115" value="Exporter" style="text;html=1;align=center;verticalAlign=middle;whiteSpace=wrap;rounded=0;fontSize=14;" vertex="1" parent="1">
          <mxGeometry x="316" y="660" width="60" height="30" as="geometry" />
        </mxCell>
        <mxCell id="VY3dcJ5x0DCgXb4jfOs8-116" value="Yaml Reader" style="text;html=1;align=center;verticalAlign=middle;whiteSpace=wrap;rounded=0;fontSize=14;" vertex="1" parent="1">
          <mxGeometry x="320" y="821" width="60" height="30" as="geometry" />
        </mxCell>
        <mxCell id="VY3dcJ5x0DCgXb4jfOs8-123" value="" style="sketch=0;outlineConnect=0;fontColor=#232F3E;gradientColor=none;strokeColor=default;fillColor=none;dashed=0;verticalLabelPosition=bottom;verticalAlign=top;align=center;html=1;fontSize=12;fontStyle=0;aspect=fixed;shape=mxgraph.aws4.resourceIcon;resIcon=mxgraph.aws4.run_command;strokeWidth=0;" vertex="1" parent="1">
          <mxGeometry x="93" y="235" width="20" height="20" as="geometry" />
        </mxCell>
        <mxCell id="VY3dcJ5x0DCgXb4jfOs8-126" value="" style="fillColor=light-dark(#FDFBF6,#36210A);verticalLabelPosition=bottom;sketch=0;html=1;strokeColor=default;verticalAlign=top;align=center;points=[[0.145,0.145,0],[0.5,0,0],[0.855,0.145,0],[1,0.5,0],[0.855,0.855,0],[0.5,1,0],[0.145,0.855,0],[0,0.5,0]];pointerEvents=1;shape=mxgraph.cisco_safe.compositeIcon;bgIcon=ellipse;resIcon=mxgraph.cisco_safe.capability.policy_configuration;aspect=fixed;" vertex="1" parent="1">
          <mxGeometry x="906.5" y="698" width="74" height="74" as="geometry" />
        </mxCell>
        <mxCell id="VY3dcJ5x0DCgXb4jfOs8-117" value="Yaml Configs" style="text;html=1;align=center;verticalAlign=middle;whiteSpace=wrap;rounded=0;fontSize=14;" vertex="1" parent="1">
          <mxGeometry x="913.5" y="766" width="60" height="30" as="geometry" />
        </mxCell>
        <mxCell id="VY3dcJ5x0DCgXb4jfOs8-127" value="" style="verticalLabelPosition=bottom;sketch=0;html=1;fillColor=#282828;strokeColor=none;verticalAlign=top;pointerEvents=1;align=center;shape=mxgraph.cisco_safe.people_places_things_icons.icon10;aspect=fixed;" vertex="1" parent="1">
          <mxGeometry x="240" y="542.05" width="14" height="13.86" as="geometry" />
        </mxCell>
        <mxCell id="VY3dcJ5x0DCgXb4jfOs8-129" value="" style="sketch=0;points=[[0,0,0],[0.25,0,0],[0.5,0,0],[0.75,0,0],[1,0,0],[0,1,0],[0.25,1,0],[0.5,1,0],[0.75,1,0],[1,1,0],[0,0.25,0],[0,0.5,0],[0,0.75,0],[1,0.25,0],[1,0.5,0],[1,0.75,0]];outlineConnect=0;fontColor=#232F3E;fillColor=none;strokeColor=none;dashed=0;verticalLabelPosition=bottom;verticalAlign=top;align=center;html=1;fontSize=12;fontStyle=0;aspect=fixed;shape=mxgraph.aws4.resourceIcon;resIcon=mxgraph.aws4.cloud_control_api;" vertex="1" parent="1">
          <mxGeometry x="890.5" y="648.98" width="20" height="20" as="geometry" />
        </mxCell>
        <mxCell id="VY3dcJ5x0DCgXb4jfOs8-130" value="" style="pointerEvents=1;verticalLabelPosition=bottom;shadow=0;dashed=0;align=center;html=1;verticalAlign=top;shape=mxgraph.electrical.miscellaneous.plug_socket_connection;aspect=fixed;" vertex="1" parent="1">
          <mxGeometry x="640" y="189" width="14" height="14" as="geometry" />
        </mxCell>
        <mxCell id="VY3dcJ5x0DCgXb4jfOs8-132" value="" style="sketch=0;outlineConnect=0;fontColor=#232F3E;gradientColor=none;fillColor=#232F3D;strokeColor=none;dashed=0;verticalLabelPosition=bottom;verticalAlign=top;align=center;html=1;fontSize=12;fontStyle=0;aspect=fixed;pointerEvents=1;shape=mxgraph.aws4.programming_language;" vertex="1" parent="1">
          <mxGeometry x="1162" y="189" width="20" height="13.09" as="geometry" />
        </mxCell>
        <mxCell id="VY3dcJ5x0DCgXb4jfOs8-133" value="" style="group" vertex="1" connectable="0" parent="1">
          <mxGeometry x="654" y="281" width="60" height="82.64999999999998" as="geometry" />
        </mxCell>
        <mxCell id="VY3dcJ5x0DCgXb4jfOs8-31" value="Service" style="text;html=1;align=center;verticalAlign=middle;whiteSpace=wrap;rounded=0;fontSize=14;" vertex="1" parent="VY3dcJ5x0DCgXb4jfOs8-133">
          <mxGeometry y="52.64999999999998" width="60" height="30" as="geometry" />
        </mxCell>
        <mxCell id="VY3dcJ5x0DCgXb4jfOs8-35" value="" style="points=[];aspect=fixed;html=1;align=center;shadow=1;dashed=0;fillColor=none;strokeColor=default;shape=mxgraph.alibaba_cloud.ecs_elastic_compute_service;" vertex="1" parent="VY3dcJ5x0DCgXb4jfOs8-133">
          <mxGeometry x="5" y="-2" width="50" height="46.6" as="geometry" />
        </mxCell>
        <mxCell id="VY3dcJ5x0DCgXb4jfOs8-134" style="edgeStyle=orthogonalEdgeStyle;rounded=0;orthogonalLoop=1;jettySize=auto;html=1;targetPerimeterSpacing=5;sourcePerimeterSpacing=5;endSize=6;shadow=0;strokeColor=default;align=center;verticalAlign=middle;fontFamily=Helvetica;fontSize=11;fontColor=default;labelBackgroundColor=default;endArrow=classic;" edge="1" parent="1">
          <mxGeometry relative="1" as="geometry">
            <mxPoint x="410" y="304" as="sourcePoint" />
            <mxPoint x="650" y="304" as="targetPoint" />
          </mxGeometry>
        </mxCell>
        <mxCell id="VY3dcJ5x0DCgXb4jfOs8-135" value="&amp;nbsp;orchestrates&amp;nbsp;" style="edgeLabel;html=1;align=center;verticalAlign=middle;resizable=0;points=[];fontSize=13;" vertex="1" connectable="0" parent="VY3dcJ5x0DCgXb4jfOs8-134">
          <mxGeometry x="-0.1199" y="1" relative="1" as="geometry">
            <mxPoint x="15" y="1" as="offset" />
          </mxGeometry>
        </mxCell>
        <mxCell id="VY3dcJ5x0DCgXb4jfOs8-136" value="" style="group;fontSize=14;" vertex="1" connectable="0" parent="1">
          <mxGeometry x="877.5" y="220" width="80" height="72" as="geometry" />
        </mxCell>
        <mxCell id="VY3dcJ5x0DCgXb4jfOs8-32" value="Authorization" style="text;html=1;align=center;verticalAlign=middle;whiteSpace=wrap;rounded=0;fontSize=14;" vertex="1" parent="VY3dcJ5x0DCgXb4jfOs8-136">
          <mxGeometry x="10" y="42" width="60" height="30" as="geometry" />
        </mxCell>
        <mxCell id="VY3dcJ5x0DCgXb4jfOs8-37" value="" style="sketch=0;html=1;aspect=fixed;strokeColor=default;shadow=1;fillColor=none;verticalAlign=top;labelPosition=center;verticalLabelPosition=bottom;shape=mxgraph.gcp2.key" vertex="1" parent="VY3dcJ5x0DCgXb4jfOs8-136">
          <mxGeometry width="80" height="37.6" as="geometry" />
        </mxCell>
        <mxCell id="VY3dcJ5x0DCgXb4jfOs8-137" value="" style="group;fontSize=14;" vertex="1" connectable="0" parent="1">
          <mxGeometry x="880" y="335" width="60" height="73" as="geometry" />
        </mxCell>
        <mxCell id="VY3dcJ5x0DCgXb4jfOs8-38" value="" style="html=1;verticalLabelPosition=bottom;align=center;labelBackgroundColor=#ffffff;verticalAlign=top;strokeWidth=1;strokeColor=light-dark(#050505, #32a0ff);shadow=0;dashed=0;shape=mxgraph.ios7.icons.pointer;fillColor=none;" vertex="1" parent="VY3dcJ5x0DCgXb4jfOs8-137">
          <mxGeometry x="8.5" width="43" height="40" as="geometry" />
        </mxCell>
        <mxCell id="VY3dcJ5x0DCgXb4jfOs8-39" value="Dispatcher" style="text;html=1;align=center;verticalAlign=middle;whiteSpace=wrap;rounded=0;fontSize=14;" vertex="1" parent="VY3dcJ5x0DCgXb4jfOs8-137">
          <mxGeometry y="43" width="60" height="30" as="geometry" />
        </mxCell>
        <mxCell id="VY3dcJ5x0DCgXb4jfOs8-140" style="edgeStyle=orthogonalEdgeStyle;rounded=1;orthogonalLoop=1;jettySize=auto;html=1;curved=0;entryX=-0.024;entryY=0.432;entryDx=0;entryDy=0;entryPerimeter=0;" edge="1" parent="1" target="VY3dcJ5x0DCgXb4jfOs8-37">
          <mxGeometry relative="1" as="geometry">
            <mxPoint x="714" y="285" as="sourcePoint" />
            <mxPoint x="850" y="236" as="targetPoint" />
            <Array as="points">
              <mxPoint x="750" y="285" />
              <mxPoint x="750" y="236" />
            </Array>
          </mxGeometry>
        </mxCell>
        <mxCell id="VY3dcJ5x0DCgXb4jfOs8-142" value="&amp;nbsp;authenticates&amp;nbsp;" style="edgeLabel;html=1;align=center;verticalAlign=middle;resizable=0;points=[];labelBackgroundColor=light-dark(#f7f9fd, #ededed);fontSize=13;" vertex="1" connectable="0" parent="VY3dcJ5x0DCgXb4jfOs8-140">
          <mxGeometry x="0.1574" y="-2" relative="1" as="geometry">
            <mxPoint x="23" y="-3" as="offset" />
          </mxGeometry>
        </mxCell>
        <mxCell id="VY3dcJ5x0DCgXb4jfOs8-141" style="edgeStyle=orthogonalEdgeStyle;rounded=1;orthogonalLoop=1;jettySize=auto;html=1;curved=0;entryX=-0.024;entryY=0.432;entryDx=0;entryDy=0;entryPerimeter=0;" edge="1" parent="1">
          <mxGeometry relative="1" as="geometry">
            <mxPoint x="715.4999999999995" y="320" as="sourcePoint" />
            <mxPoint x="877.4999999999995" y="369" as="targetPoint" />
            <Array as="points">
              <mxPoint x="750" y="320" />
              <mxPoint x="750" y="369" />
            </Array>
          </mxGeometry>
        </mxCell>
        <mxCell id="VY3dcJ5x0DCgXb4jfOs8-143" value="&amp;nbsp;dispatches&amp;nbsp;" style="edgeLabel;html=1;align=center;verticalAlign=middle;resizable=0;points=[];labelBackgroundColor=light-dark(#f7f9fd, #ededed);fontSize=13;" vertex="1" connectable="0" parent="VY3dcJ5x0DCgXb4jfOs8-141">
          <mxGeometry x="0.1937" y="1" relative="1" as="geometry">
            <mxPoint x="13" as="offset" />
          </mxGeometry>
        </mxCell>
        <mxCell id="VY3dcJ5x0DCgXb4jfOs8-145" value="" style="group;fontSize=14;" vertex="1" connectable="0" parent="1">
          <mxGeometry x="1410" y="250" width="70" height="70" as="geometry" />
        </mxCell>
        <mxCell id="VY3dcJ5x0DCgXb4jfOs8-47" value="Serializer" style="text;html=1;align=center;verticalAlign=middle;whiteSpace=wrap;rounded=0;fontFamily=Verdana;fontSize=14;" vertex="1" parent="VY3dcJ5x0DCgXb4jfOs8-145">
          <mxGeometry y="40" width="70" height="30" as="geometry" />
        </mxCell>
        <mxCell id="VY3dcJ5x0DCgXb4jfOs8-76" value="" style="group" vertex="1" connectable="0" parent="VY3dcJ5x0DCgXb4jfOs8-145">
          <mxGeometry x="11.666666666666668" width="46.66666666666667" height="40" as="geometry" />
        </mxCell>
        <mxCell id="VY3dcJ5x0DCgXb4jfOs8-74" value="" style="shape=curlyBracket;whiteSpace=wrap;html=1;rounded=1;labelPosition=left;verticalLabelPosition=middle;align=right;verticalAlign=middle;" vertex="1" parent="VY3dcJ5x0DCgXb4jfOs8-76">
          <mxGeometry width="12.612612612612613" height="40" as="geometry" />
        </mxCell>
        <mxCell id="VY3dcJ5x0DCgXb4jfOs8-75" value="" style="shape=curlyBracket;whiteSpace=wrap;html=1;rounded=1;flipH=1;labelPosition=right;verticalLabelPosition=middle;align=left;verticalAlign=middle;" vertex="1" parent="VY3dcJ5x0DCgXb4jfOs8-76">
          <mxGeometry x="34.054054054054056" width="12.612612612612613" height="40" as="geometry" />
        </mxCell>
        <mxCell id="VY3dcJ5x0DCgXb4jfOs8-149" style="edgeStyle=orthogonalEdgeStyle;rounded=1;orthogonalLoop=1;jettySize=auto;html=1;curved=0;" edge="1" parent="1" source="VY3dcJ5x0DCgXb4jfOs8-38">
          <mxGeometry relative="1" as="geometry">
            <mxPoint x="1410" y="260" as="targetPoint" />
            <Array as="points">
              <mxPoint x="1100" y="355" />
              <mxPoint x="1100" y="230" />
              <mxPoint x="1380" y="230" />
              <mxPoint x="1380" y="260" />
            </Array>
          </mxGeometry>
        </mxCell>
        <mxCell id="VY3dcJ5x0DCgXb4jfOs8-154" value="&amp;nbsp;raw data&amp;nbsp;" style="edgeLabel;html=1;align=center;verticalAlign=middle;resizable=0;points=[];labelBackgroundColor=light-dark(#f7fdf9, #ededed);fontSize=13;" vertex="1" connectable="0" parent="VY3dcJ5x0DCgXb4jfOs8-149">
          <mxGeometry x="0.5557" relative="1" as="geometry">
            <mxPoint x="21" as="offset" />
          </mxGeometry>
        </mxCell>
        <mxCell id="VY3dcJ5x0DCgXb4jfOs8-150" value="" style="group" vertex="1" connectable="0" parent="1">
          <mxGeometry x="1210" y="350" width="60" height="70" as="geometry" />
        </mxCell>
        <mxCell id="VY3dcJ5x0DCgXb4jfOs8-82" value="" style="group" vertex="1" connectable="0" parent="VY3dcJ5x0DCgXb4jfOs8-150">
          <mxGeometry x="5" width="50" height="25" as="geometry" />
        </mxCell>
        <mxCell id="VY3dcJ5x0DCgXb4jfOs8-80" value="" style="curved=1;endArrow=classic;html=1;rounded=0;" edge="1" parent="VY3dcJ5x0DCgXb4jfOs8-82">
          <mxGeometry width="50" height="50" relative="1" as="geometry">
            <mxPoint y="10" as="sourcePoint" />
            <mxPoint x="50" as="targetPoint" />
            <Array as="points">
              <mxPoint />
              <mxPoint x="20" />
            </Array>
          </mxGeometry>
        </mxCell>
        <mxCell id="VY3dcJ5x0DCgXb4jfOs8-81" value="" style="curved=1;endArrow=classic;html=1;rounded=0;orthogonalLoop=0;editable=1;movable=1;resizable=1;rotatable=1;deletable=1;locked=0;connectable=1;ignoreEdge=0;orthogonal=1;horizontal=1;" edge="1" parent="VY3dcJ5x0DCgXb4jfOs8-82">
          <mxGeometry width="50" height="50" relative="1" as="geometry">
            <mxPoint x="50" y="15" as="sourcePoint" />
            <mxPoint y="25" as="targetPoint" />
            <Array as="points">
              <mxPoint x="50" y="25" />
              <mxPoint x="30" y="25" />
            </Array>
          </mxGeometry>
        </mxCell>
        <mxCell id="VY3dcJ5x0DCgXb4jfOs8-152" style="edgeStyle=orthogonalEdgeStyle;rounded=1;orthogonalLoop=1;jettySize=auto;html=1;curved=0;" edge="1" parent="VY3dcJ5x0DCgXb4jfOs8-150">
          <mxGeometry relative="1" as="geometry">
            <mxPoint x="200" y="-70" as="targetPoint" />
            <mxPoint x="60" y="10" as="sourcePoint" />
            <Array as="points">
              <mxPoint x="170" y="10" />
              <mxPoint x="170" y="-70" />
            </Array>
          </mxGeometry>
        </mxCell>
        <mxCell id="VY3dcJ5x0DCgXb4jfOs8-153" value="&amp;nbsp;convert rules&amp;nbsp;" style="edgeLabel;html=1;align=center;verticalAlign=middle;resizable=0;points=[];labelBackgroundColor=light-dark(#f7fdf9, #ededed);fontSize=13;" vertex="1" connectable="0" parent="VY3dcJ5x0DCgXb4jfOs8-152">
          <mxGeometry x="-0.5678" relative="1" as="geometry">
            <mxPoint x="10" as="offset" />
          </mxGeometry>
        </mxCell>
        <mxCell id="VY3dcJ5x0DCgXb4jfOs8-114" value="Type Converters" style="text;html=1;align=center;verticalAlign=middle;whiteSpace=wrap;rounded=0;fontSize=14;" vertex="1" parent="VY3dcJ5x0DCgXb4jfOs8-150">
          <mxGeometry y="36" width="60" height="30" as="geometry" />
        </mxCell>
        <mxCell id="VY3dcJ5x0DCgXb4jfOs8-151" value="" style="group;fontSize=14;" vertex="1" connectable="0" parent="1">
          <mxGeometry x="1210" y="250" width="60" height="70" as="geometry" />
        </mxCell>
        <mxCell id="VY3dcJ5x0DCgXb4jfOs8-70" value="&lt;pre&gt;&lt;font style=&quot;font-size: 63px;&quot; face=&quot;Courier New&quot;&gt;T&lt;/font&gt;&lt;/pre&gt;" style="text;html=1;align=center;verticalAlign=middle;whiteSpace=wrap;rounded=0;" vertex="1" parent="VY3dcJ5x0DCgXb4jfOs8-151">
          <mxGeometry y="5" width="60" height="30" as="geometry" />
        </mxCell>
        <mxCell id="VY3dcJ5x0DCgXb4jfOs8-46" value="Serializer Typing" style="text;html=1;align=center;verticalAlign=middle;whiteSpace=wrap;rounded=0;fontFamily=Helvetica;fontSize=14;" vertex="1" parent="VY3dcJ5x0DCgXb4jfOs8-151">
          <mxGeometry y="45" width="60" height="30" as="geometry" />
        </mxCell>
        <mxCell id="VY3dcJ5x0DCgXb4jfOs8-156" value="" style="group" vertex="1" connectable="0" parent="1">
          <mxGeometry x="1033" y="761" width="75" height="78" as="geometry" />
        </mxCell>
        <mxCell id="VY3dcJ5x0DCgXb4jfOs8-118" value="External APIs" style="text;html=1;align=center;verticalAlign=middle;whiteSpace=wrap;rounded=0;fontSize=14;" vertex="1" parent="VY3dcJ5x0DCgXb4jfOs8-156">
          <mxGeometry y="48" width="75" height="30" as="geometry" />
        </mxCell>
        <mxCell id="VY3dcJ5x0DCgXb4jfOs8-128" value="" style="sketch=0;points=[[0,0,0],[0.25,0,0],[0.5,0,0],[0.75,0,0],[1,0,0],[0,1,0],[0.25,1,0],[0.5,1,0],[0.75,1,0],[1,1,0],[0,0.25,0],[0,0.5,0],[0,0.75,0],[1,0.25,0],[1,0.5,0],[1,0.75,0]];outlineConnect=0;fontColor=#232F3E;fillColor=none;strokeColor=none;dashed=0;verticalLabelPosition=bottom;verticalAlign=top;align=center;html=1;fontSize=12;fontStyle=0;aspect=fixed;shape=mxgraph.aws4.resourceIcon;resIcon=mxgraph.aws4.cloud_control_api;" vertex="1" parent="VY3dcJ5x0DCgXb4jfOs8-156">
          <mxGeometry x="6" y="-7" width="63" height="63" as="geometry" />
        </mxCell>
        <mxCell id="VY3dcJ5x0DCgXb4jfOs8-157" value="" style="group;perimeterSpacing=0;" vertex="1" connectable="0" parent="1">
          <mxGeometry x="1037.5" y="890" width="60" height="80" as="geometry" />
        </mxCell>
        <mxCell id="VY3dcJ5x0DCgXb4jfOs8-108" value="" style="sketch=0;aspect=fixed;pointerEvents=1;shadow=0;dashed=0;html=1;strokeColor=none;labelPosition=center;verticalLabelPosition=bottom;verticalAlign=top;align=center;fillColor=#000000;shape=mxgraph.mscae.enterprise.document" vertex="1" parent="VY3dcJ5x0DCgXb4jfOs8-157">
          <mxGeometry x="10" y="-9" width="40" height="50" as="geometry" />
        </mxCell>
        <mxCell id="VY3dcJ5x0DCgXb4jfOs8-119" value="CSV Files" style="text;html=1;align=center;verticalAlign=middle;whiteSpace=wrap;rounded=0;fontSize=14;" vertex="1" parent="VY3dcJ5x0DCgXb4jfOs8-157">
          <mxGeometry y="50" width="60" height="30" as="geometry" />
        </mxCell>
        <mxCell id="VY3dcJ5x0DCgXb4jfOs8-158" style="edgeStyle=orthogonalEdgeStyle;rounded=1;orthogonalLoop=1;jettySize=auto;html=1;curved=0;" edge="1" parent="1" source="VY3dcJ5x0DCgXb4jfOs8-38" target="VY3dcJ5x0DCgXb4jfOs8-128">
          <mxGeometry relative="1" as="geometry">
            <Array as="points">
              <mxPoint x="1073" y="360" />
            </Array>
          </mxGeometry>
        </mxCell>
        <mxCell id="VY3dcJ5x0DCgXb4jfOs8-160" value="fetches" style="edgeLabel;html=1;align=center;verticalAlign=middle;resizable=0;points=[];fontSize=13;" vertex="1" connectable="0" parent="VY3dcJ5x0DCgXb4jfOs8-158">
          <mxGeometry x="0.1373" y="1" relative="1" as="geometry">
            <mxPoint as="offset" />
          </mxGeometry>
        </mxCell>
        <mxCell id="VY3dcJ5x0DCgXb4jfOs8-159" style="edgeStyle=orthogonalEdgeStyle;rounded=1;orthogonalLoop=1;jettySize=auto;html=1;sourcePerimeterSpacing=10;targetPerimeterSpacing=10;curved=0;" edge="1" parent="1" source="VY3dcJ5x0DCgXb4jfOs8-75">
          <mxGeometry relative="1" as="geometry">
            <mxPoint x="374" y="630" as="targetPoint" />
            <Array as="points">
              <mxPoint x="1540" y="270" />
              <mxPoint x="1540" y="600" />
              <mxPoint x="410" y="600" />
              <mxPoint x="410" y="630" />
            </Array>
          </mxGeometry>
        </mxCell>
        <mxCell id="VY3dcJ5x0DCgXb4jfOs8-161" value="&amp;nbsp;transforms&amp;nbsp;" style="edgeLabel;html=1;align=center;verticalAlign=middle;resizable=0;points=[];fontSize=13;" vertex="1" connectable="0" parent="VY3dcJ5x0DCgXb4jfOs8-159">
          <mxGeometry x="0.4081" y="1" relative="1" as="geometry">
            <mxPoint as="offset" />
          </mxGeometry>
        </mxCell>
        <mxCell id="VY3dcJ5x0DCgXb4jfOs8-162" style="edgeStyle=orthogonalEdgeStyle;rounded=1;orthogonalLoop=1;jettySize=auto;html=1;targetPerimeterSpacing=10;sourcePerimeterSpacing=0;curved=0;" edge="1" parent="1" source="VY3dcJ5x0DCgXb4jfOs8-113">
          <mxGeometry relative="1" as="geometry">
            <mxPoint x="1040" y="915" as="targetPoint" />
            <Array as="points">
              <mxPoint x="707" y="640" />
              <mxPoint x="707" y="915" />
            </Array>
          </mxGeometry>
        </mxCell>
        <mxCell id="VY3dcJ5x0DCgXb4jfOs8-163" value="writes csv" style="edgeLabel;html=1;align=center;verticalAlign=middle;resizable=0;points=[];fontSize=13;" vertex="1" connectable="0" parent="VY3dcJ5x0DCgXb4jfOs8-162">
          <mxGeometry x="-0.0069" relative="1" as="geometry">
            <mxPoint as="offset" />
          </mxGeometry>
        </mxCell>
        <mxCell id="VY3dcJ5x0DCgXb4jfOs8-164" style="edgeStyle=orthogonalEdgeStyle;rounded=1;orthogonalLoop=1;jettySize=auto;html=1;curved=0;exitX=0;exitY=0.5;exitDx=0;exitDy=0;exitPerimeter=0;" edge="1" parent="1" source="VY3dcJ5x0DCgXb4jfOs8-126" target="VY3dcJ5x0DCgXb4jfOs8-111">
          <mxGeometry relative="1" as="geometry" />
        </mxCell>
        <mxCell id="VY3dcJ5x0DCgXb4jfOs8-165" value="&amp;nbsp;loads yaml&amp;nbsp;" style="edgeLabel;html=1;align=center;verticalAlign=middle;resizable=0;points=[];fontSize=13;" vertex="1" connectable="0" parent="VY3dcJ5x0DCgXb4jfOs8-164">
          <mxGeometry x="0.4245" y="2" relative="1" as="geometry">
            <mxPoint as="offset" />
          </mxGeometry>
        </mxCell>
        <mxCell id="VY3dcJ5x0DCgXb4jfOs8-169" value="ADAPT ETL System Archietecture Overview" style="text;html=1;align=center;verticalAlign=middle;whiteSpace=wrap;rounded=0;fontSize=24;fillColor=default;fontStyle=0" vertex="1" parent="1">
          <mxGeometry x="545" y="110" width="570" height="30" as="geometry" />
        </mxCell>
        <mxCell id="VY3dcJ5x0DCgXb4jfOs8-171" value="" style="endArrow=oval;html=1;rounded=0;endSize=3;startSize=3;startFill=1;endFill=1;edgeStyle=elbowEdgeStyle;strokeColor=default;startArrow=oval;strokeWidth=1;" edge="1" parent="1">
          <mxGeometry width="50" height="50" relative="1" as="geometry">
            <mxPoint x="574" y="132.75" as="sourcePoint" />
            <mxPoint x="586" y="117.25" as="targetPoint" />
          </mxGeometry>
        </mxCell>
      </root>
    </mxGraphModel>
  </diagram>
</mxfile>
